<svg width="800" height="800" viewBox="0 0 800 800" fill="none" xmlns="http://www.w3.org/2000/svg">
<path d="M800 400.006C799.988 353.959 754.536 313.016 680.437 283.862C712.216 210.84 715.411 149.722 682.853 117.174C667.396 101.717 645.575 93.8775 618.042 93.8775C588.654 93.8775 553.827 103.018 516.128 119.513C486.974 45.4516 446.031 0.0124512 399.996 0.0124512C353.961 0.0124512 313.043 45.4391 283.876 119.501C246.177 103.004 211.363 93.865 181.974 93.865C154.419 93.865 132.608 101.705 117.151 117.162C84.5912 149.722 87.7877 210.827 119.567 283.849C45.464 313.003 0.0124536 353.959 0 399.994C0 446.041 45.464 486.984 119.576 516.151C87.8084 589.173 84.6016 650.266 117.16 682.838C132.617 698.295 154.437 706.135 181.97 706.135C211.346 706.135 246.173 697.006 283.872 680.499C313.026 754.561 353.969 799.988 399.992 799.988C446.027 799.988 486.957 754.561 516.124 680.499C553.823 697.009 588.637 706.135 618.026 706.135C645.581 706.135 667.379 698.295 682.836 682.838C715.396 650.278 712.2 589.173 680.42 516.151C754.524 486.997 800 446.054 800 400.006ZM618.03 118.635C638.775 118.635 654.689 124.036 665.327 134.673C688.87 158.23 686.083 209.775 657.24 275.404C625.485 264.752 589.397 256.121 550.124 249.865C543.883 210.643 535.263 174.602 524.636 142.872C559.66 127.328 591.674 118.635 618.03 118.635ZM536.759 399.994C536.759 419.166 536.203 437.755 535.224 455.801C523.063 469.387 510.403 483.022 496.719 496.721C483.319 510.121 469.657 522.965 455.911 535.226C437.828 536.216 419.201 536.774 399.994 536.774C380.786 536.774 362.158 536.216 344.077 535.226C330.33 522.965 316.669 510.121 303.269 496.721C289.584 483.037 276.925 469.375 264.752 455.778C263.774 437.745 263.216 419.156 263.216 399.996C263.216 380.836 263.772 362.272 264.752 344.239C276.925 330.64 289.584 316.98 303.281 303.283C316.681 289.883 330.33 277.039 344.089 264.766C362.172 263.776 380.786 263.218 399.994 263.218C419.201 263.218 437.818 263.776 455.898 264.766C469.657 277.039 483.306 289.883 496.707 303.283C510.391 316.98 523.05 330.629 535.224 344.226C536.203 362.257 536.759 380.834 536.759 399.994ZM514.218 285.769C508.087 279.625 501.883 273.668 495.679 267.774C506.862 268.863 517.761 270.14 528.411 271.589C529.848 282.216 531.137 293.1 532.226 304.273C526.319 298.08 520.362 291.911 514.218 285.769ZM465.932 240.587C450.971 227.447 435.935 215.049 420.912 203.432C448.729 183.666 476.135 166.872 502.242 153.57C511.184 180.816 518.801 211.865 524.584 246.196C505.648 243.771 486.069 241.889 465.932 240.587ZM425.383 238.792C416.985 238.595 408.539 238.458 399.994 238.458C391.449 238.458 383.001 238.595 374.605 238.792C383.076 231.87 391.536 225.205 399.994 218.789C408.464 225.22 416.924 231.882 425.383 238.792ZM334.056 240.587C313.906 241.889 294.325 243.769 275.389 246.198C281.174 211.855 288.777 180.806 297.731 153.559C323.85 166.872 351.246 183.666 379.074 203.434C364.053 215.051 349.017 227.449 334.056 240.587ZM304.308 267.774C298.104 273.681 291.911 279.638 285.769 285.769C279.625 291.913 273.643 298.092 267.761 304.284C268.851 293.113 270.127 282.226 271.576 271.587C282.214 270.15 293.125 268.863 304.308 267.774ZM240.575 333.983C227.287 349.119 214.79 364.264 203.135 379.35C182.873 350.889 166.279 323.481 153.323 297.82C180.632 288.841 211.755 281.199 246.185 275.404C243.759 294.314 241.864 313.869 240.575 333.983ZM238.792 374.456C238.57 382.901 238.445 391.399 238.445 399.994C238.445 408.589 238.595 417.097 238.792 425.544C231.733 416.974 224.958 408.454 218.518 399.994C224.958 391.561 231.733 383.051 238.792 374.456ZM240.575 466.029C241.876 486.142 243.757 505.686 246.185 524.596C211.743 518.789 180.619 511.159 153.323 502.18C166.277 476.519 182.873 449.111 203.123 420.65C214.79 435.748 227.287 450.896 240.575 466.029ZM267.761 495.729C273.656 501.908 279.613 508.077 285.757 514.22C291.888 520.352 298.092 526.321 304.296 532.216C293.113 531.126 282.214 529.85 271.564 528.401C270.138 517.786 268.851 506.9 267.761 495.729ZM334.031 559.413C349.005 572.553 364.04 584.963 379.076 596.58C351.246 616.346 323.852 633.14 297.733 646.443C288.791 619.196 281.174 588.147 275.391 553.804C294.327 556.229 313.906 558.124 334.031 559.413ZM374.593 561.208C383.003 561.418 391.436 561.542 399.994 561.542C408.552 561.542 416.987 561.405 425.395 561.208C416.924 568.13 408.464 574.795 399.994 581.211C391.523 574.78 383.063 568.118 374.593 561.208ZM465.944 559.413C486.082 558.124 505.65 556.231 524.586 553.815C518.801 588.145 511.186 619.194 502.244 646.441C476.125 633.128 448.729 616.334 420.914 596.578C435.935 584.961 450.983 572.551 465.944 559.413ZM495.692 532.226C501.896 526.319 508.102 520.362 514.231 514.231C520.36 508.1 526.344 501.933 532.214 495.752C531.124 506.91 529.848 517.797 528.399 528.424C517.761 529.85 506.875 531.137 495.692 532.226ZM559.4 466.042C572.688 450.906 585.198 435.761 596.852 420.663C617.102 449.123 633.696 476.532 646.652 502.192C619.344 511.171 588.22 518.814 553.777 524.609C556.216 505.698 558.099 486.156 559.4 466.042ZM561.183 425.557C561.393 417.099 561.53 408.601 561.53 399.994C561.53 391.399 561.38 382.903 561.196 374.456C568.242 383.038 575.029 391.559 581.47 400.019C575.029 408.464 568.242 416.987 561.183 425.557ZM559.4 333.971C558.099 313.858 556.216 294.302 553.802 275.404C588.245 281.199 619.369 288.841 646.677 297.833C633.711 323.493 617.114 350.914 596.865 379.362C585.198 364.277 572.701 349.117 559.4 333.971ZM399.981 24.7703C433.284 24.7703 467.789 63.1627 493.797 129.981C463.628 145.066 432.02 164.46 399.994 187.72C367.955 164.46 336.335 145.066 306.179 129.968C332.186 63.1627 366.678 24.7703 399.981 24.7703ZM134.649 134.673C145.288 124.034 161.227 118.635 181.958 118.635C208.312 118.635 240.328 127.33 275.339 142.872C264.712 174.602 256.082 210.643 249.838 249.878C210.553 256.132 174.49 264.764 142.735 275.416C113.89 209.775 111.105 158.23 134.649 134.673ZM24.7578 400.006C24.7703 366.703 63.1627 332.211 129.968 306.191C144.892 336.175 164.299 367.805 187.67 400.006C164.311 432.22 144.904 463.825 129.968 493.821C63.1627 467.814 24.7578 433.309 24.7578 400.006ZM181.97 681.377C161.227 681.377 145.311 675.976 134.673 665.339C111.13 641.783 113.917 590.237 142.76 524.609C174.502 535.248 210.593 543.891 249.853 550.147C256.107 589.382 264.714 625.411 275.354 657.153C240.328 672.695 208.314 681.377 181.97 681.377ZM399.981 775.23C366.678 775.23 332.186 736.837 306.179 670.044C336.347 654.946 367.955 635.564 399.994 612.305C432.02 635.552 463.64 654.946 493.797 670.044C467.777 736.837 433.284 775.23 399.981 775.23ZM665.314 665.339C654.675 675.979 638.748 681.377 618.017 681.377C591.661 681.377 559.647 672.682 524.636 657.128C535.263 625.398 543.883 589.37 550.137 550.135C589.409 543.881 625.485 535.248 657.242 524.609C686.072 590.237 688.858 641.783 665.314 665.339ZM670.009 493.821C655.086 463.837 635.679 432.207 612.32 400.019C635.689 367.805 655.098 336.188 670.022 306.191C736.837 332.211 775.219 366.691 775.232 400.006C775.23 433.309 736.825 467.814 670.009 493.821Z" fill="white"/>
</svg>
