<svg width="1393" height="679" viewBox="0 0 1393 679" fill="none" xmlns="http://www.w3.org/2000/svg">
<g clip-path="url(#clip0_52_216)">
<path d="M217.96 678.64C215.38 678.64 212.73 678.57 209.97 678.42C162.93 675.9 157.85 654.83 157.85 645.88C157.85 614.84 186.47 613.04 205.41 611.85C211.45 611.47 217.16 611.11 222.01 610.14C240.43 606.45 262.07 594.61 273.69 588.24C276.26 586.83 278.48 585.62 280.23 584.72C283.58 583.01 288.5 580.17 294.2 576.89C314.18 565.39 347.62 546.13 383.61 534.42C428.49 519.82 465.81 520.75 494.55 537.16C509.23 545.55 526.09 562.34 529.35 584.31C531.23 596.93 529.24 616.45 509.14 637.74C475.97 672.88 389.12 672.05 325.72 671.46C308.92 671.3 294.41 671.17 283.3 671.72C271.93 672.29 262.26 673.77 252.9 675.21C241.57 676.95 230.76 678.62 217.96 678.62V678.64ZM284.5 593.1L288.78 601.47C287.26 602.25 285.15 603.4 282.7 604.74C270.2 611.59 246.92 624.34 225.68 628.59C219.59 629.81 212.98 630.22 206.58 630.63C183.38 632.09 176.64 634.27 176.64 645.9C176.64 652.92 190.76 658.58 210.97 659.67C225.49 660.45 237.41 658.61 250.04 656.67C259.86 655.16 270.02 653.59 282.36 652.98C294.02 652.4 308.79 652.54 325.89 652.7C382.45 653.23 467.92 654.04 495.46 624.87C507.44 612.18 512.58 599.48 510.74 587.11C508.46 571.8 496.06 559.72 485.21 553.52C428.64 521.2 341 571.66 303.57 593.21C297.41 596.76 292.54 599.56 288.78 601.49L284.5 593.12V593.1Z" fill="white"/>
<path d="M156.38 665.9C126.15 665.9 79.87 657.14 57.02 630.82C45.06 617.04 40.94 599.9 45.12 581.25C49.92 559.84 62.85 543.55 82.52 534.16C116.77 517.8 169.41 523.16 219.89 548.13C227.08 551.69 234.6 555.24 241.86 558.67C268.09 571.07 284.52 579.06 291.48 586.8L277.5 599.37C272.7 594.04 252.05 584.28 233.82 575.66C226.48 572.19 218.88 568.6 211.54 564.97C166.79 542.83 119.32 537.39 90.6 551.11C76.12 558.03 66.98 569.54 63.44 585.35C60.54 598.3 63.08 609.14 71.19 618.49C91.22 641.56 138.3 648.92 165.31 646.77L166.8 665.51C163.62 665.76 160.11 665.9 156.35 665.9H156.38Z" fill="white"/>
<path d="M163.66 420.25C163.32 425.97 160.48 491.36 127.84 514.61C95.51 537.64 65.8 545.19 43.06 538.89C18.94 532.2 12.01 496.62 36.61 486.11C58.35 476.82 56.91 502.83 48.07 505.93C39.23 509.03 38.09 522.81 56.19 521.21C72.43 519.78 78.64 495.66 71.24 482.05C103.72 480.62 109.62 439.47 115.9 412.8C122.59 384.38 138.83 349.99 145.03 345.46C145.03 345.46 149.97 336.78 145.51 330.26C141.05 323.74 136.75 314.66 120.2 344.59C120.2 344.59 107.3 361.7 95.84 409.39C88.71 439.03 81.03 462.25 68.16 464.39C48.17 467.71 18.38 452.94 2.22999 497.44C-8.76001 527.69 22.77 560.01 54.85 562.87C61.82 563.49 114.79 540.43 119.89 539.47C124.99 538.51 134.86 532.46 145.36 525.14C155.86 517.82 171.15 487.57 171.15 487.57C171.15 487.57 179.75 519.73 178.79 539.79C177.83 559.95 207.13 558.26 203.63 546.16C200.13 534.06 187.71 487.57 185.16 476.11C182.61 464.65 179.75 435.03 177.2 421.34C174.65 407.65 164.46 406.75 163.67 420.28L163.66 420.25Z" fill="white"/>
<path d="M409.01 420.25C409.35 425.97 412.19 491.36 444.83 514.61C477.16 537.64 506.87 545.19 529.61 538.89C553.73 532.2 560.66 496.62 536.06 486.11C514.32 476.82 515.76 502.83 524.6 505.93C533.44 509.03 534.58 522.81 516.48 521.21C500.24 519.78 494.03 495.66 501.43 482.05C468.95 480.62 463.05 439.47 456.77 412.8C450.08 384.38 433.84 349.99 427.64 345.46C427.64 345.46 422.7 336.78 427.16 330.26C431.62 323.73 435.92 314.66 452.47 344.59C452.47 344.59 465.37 361.7 476.83 409.39C483.96 439.03 491.64 462.25 504.51 464.39C524.5 467.71 554.29 452.94 570.44 497.44C581.43 527.69 549.9 560.01 517.82 562.87C510.85 563.49 457.88 540.43 452.78 539.47C447.69 538.51 437.81 532.46 427.31 525.14C416.8 517.82 401.52 487.57 401.52 487.57C401.52 487.57 392.92 519.73 393.88 539.79C394.84 559.95 365.54 558.26 369.04 546.16C372.54 534.06 384.96 487.57 387.51 476.11C390.06 464.65 392.92 435.03 395.47 421.34C398.02 407.65 408.21 406.75 409 420.28L409.01 420.25Z" fill="white"/>
<path d="M286.07 205.59H319.05C327.01 205.59 327.17 218.17 322.23 227.24C317.29 236.31 296.45 254.13 296.45 254.13V264.97C296.45 271.54 316.46 282.99 338.59 283.12C358.65 283.24 364.72 264.61 365.93 254.54C367.12 244.67 366.03 237.29 366.03 237.29C366.03 237.29 374.76 248.01 372.85 261.38C370.94 274.75 357.56 298.07 323.66 295.53C296.56 293.5 289.75 285.26 289.75 285.26H286.06V205.58L286.07 205.59Z" fill="white"/>
<path d="M449.13 121.38C470.3 95.5799 457.4 58.8799 435.67 45.2699C427.53 40.1699 417.49 37.9399 406.26 38.2899C397.9 38.5399 388.88 40.2299 379.49 43.2399C367.85 46.9899 355.67 52.7599 343.5 60.3299C322.06 73.6699 315.87 84.3799 314.23 90.4999C313.59 92.8799 315.97 94.8899 318.23 93.9199C334.03 87.1399 356.41 90.2599 369.05 97.8099C386.77 108.41 402.72 128.61 403.92 169.45C405.12 210.29 366.05 235.86 366.05 235.86L366.24 237.55L368.58 259.01C368.58 259.01 374.31 268.32 347.57 290.06C347.17 291 346.76 291.93 346.34 292.84C326.86 335.17 286.08 340.22 286.08 340.22V366.48C299.57 353.58 335.39 345.95 361.42 313.71C387.45 281.46 380.05 261.65 382.14 253.77C384.24 245.89 386.49 246.37 407.26 220.34C428.04 194.31 420.8 143.68 420.8 143.68L436.09 136.67C436.09 136.67 460.23 172.36 461.56 212.14C463.47 269.13 439.64 289.35 439.64 289.35C438.14 263.87 431.77 252.6 426.78 247.64C424.94 245.8 421.86 247.65 422.56 250.16C425.77 261.57 430.51 286.83 420.17 313.4C406.16 349.38 353.62 377.39 332.29 386.31C314.62 393.7 283.89 415.61 283.89 415.61V449.35C283.89 449.35 298.79 431.9 328.91 410.85C368.84 382.97 392.48 381.61 416.99 355.42C442.62 328.03 472.75 295.58 479.39 233.79C487.04 162.79 449.15 121.4 449.15 121.4L449.13 121.38ZM428.26 117.55C411.56 132.68 411.22 125.52 409.47 118.82C407.72 112.14 399.93 96.8499 383.53 85.6999C374.85 79.8099 376.47 76.6299 387.19 66.4499C396.11 57.9899 421.42 50.8299 434.64 70.1099C441.03 79.4199 446.15 101.36 428.26 117.54V117.55Z" fill="white"/>
<path d="M286.07 62.9399C286.07 62.9399 288.33 62.7699 289.52 57.8399C290.71 52.9099 298.83 14.9399 335.13 24.2499C371.43 33.5599 380.27 43.5899 384.09 47.6499C387.91 51.7099 409.26 42.8599 409.26 42.8599C409.26 42.8599 404.39 27.2699 356.63 11.9899C308.86 -3.29011 286.07 0.389888 286.07 0.389888V62.9399Z" fill="white"/>
<path d="M286.21 205.59C278.41 205.59 257.53 205.59 253.23 205.59C245.27 205.59 245.11 218.17 250.05 227.24C254.99 236.31 275.83 254.13 275.83 254.13C275.83 254.13 275.83 261.31 275.83 264.97C275.83 271.54 255.82 282.99 233.69 283.12C213.63 283.24 207.56 264.61 206.35 254.54C205.16 244.67 206.25 237.29 206.25 237.29C206.25 237.29 197.52 248.01 199.43 261.38C201.34 274.75 214.72 298.07 248.62 295.53C275.72 293.5 282.53 285.26 282.53 285.26H286.22V205.58L286.21 205.59Z" fill="white"/>
<path d="M240.01 386.29C218.68 377.37 166.14 349.36 152.13 313.38C141.79 286.81 146.53 261.55 149.74 250.14C150.43 247.64 147.35 245.79 145.52 247.62C140.53 252.58 134.17 263.85 132.66 289.33C132.66 289.33 108.81 269.11 110.74 212.12C112.07 172.34 136.21 136.65 136.21 136.65L151.5 143.66C151.5 143.66 144.25 194.29 165.04 220.32C185.81 246.35 188.06 245.87 190.16 253.75C192.26 261.63 184.85 281.44 210.88 313.69C236.91 345.92 272.73 353.56 286.22 366.46V340.2C286.22 340.2 245.44 335.15 225.96 292.82C225.54 291.91 225.14 290.98 224.73 290.04C197.99 268.3 203.72 258.99 203.72 258.99L206.05 237.53L206.24 235.84C206.24 235.84 167.18 210.27 168.38 169.43C169.57 128.59 185.52 108.39 203.25 97.7899C215.89 90.2399 238.28 87.1199 254.07 93.8999C256.33 94.8699 258.71 92.8599 258.07 90.4799C256.43 84.3599 250.24 73.6499 228.8 60.3099C216.62 52.7299 204.45 46.9599 192.81 43.2199C183.42 40.2099 174.4 38.5199 166.04 38.2699C154.8 37.9199 144.77 40.1499 136.63 45.2499C114.89 58.8599 102 95.5599 123.17 121.36C123.17 121.36 85.28 162.75 92.93 233.75C99.57 295.54 129.71 327.99 155.33 355.38C179.84 381.57 203.49 382.93 243.41 410.81C273.53 431.85 284.23 449.31 284.23 449.31L288.42 415.57C288.42 415.57 257.69 393.66 240.02 386.27L240.01 386.29ZM137.64 70.1099C150.86 50.8299 176.16 57.9899 185.09 66.4499C195.81 76.6299 197.43 79.8099 188.75 85.6999C172.35 96.8499 164.56 112.14 162.81 118.82C161.05 125.52 160.73 132.67 144.01 117.55C126.14 101.37 131.26 79.4299 137.65 70.1199L137.64 70.1099Z" fill="white"/>
<path d="M286.21 62.9399C286.21 62.9399 283.95 62.7699 282.76 57.8399C281.57 52.9099 273.45 14.9399 237.15 24.2499C200.85 33.5599 192.01 43.5899 188.19 47.6499C184.37 51.7099 163.02 42.8599 163.02 42.8599C163.02 42.8599 167.89 27.2699 215.65 11.9899C263.42 -3.29011 286.21 0.389888 286.21 0.389888V62.9399Z" fill="white"/>
<path d="M196.42 157.03C195.65 154.64 198.54 152.78 200.39 154.48C206.64 160.22 217.14 168.2 227.13 168.2C237.12 168.2 245.59 162.3 251.21 156.97C253.4 154.9 256.89 157.13 255.92 159.99C253.07 168.37 245.8 178.83 227.31 178.83C206.98 178.83 199.3 165.94 196.42 157.04V157.03Z" fill="white"/>
<path d="M374.54 157.03C375.31 154.64 372.42 152.78 370.57 154.48C364.32 160.22 353.82 168.2 343.83 168.2C333.84 168.2 325.37 162.3 319.75 156.97C317.56 154.9 314.07 157.13 315.04 159.99C317.89 168.37 325.16 178.83 343.65 178.83C363.98 178.83 371.66 165.94 374.54 157.04V157.03Z" fill="white"/>
<path d="M381.53 78.9399L385.25 73.6199C385.65 73.0499 386.4 72.8599 387.02 73.1699C392.61 75.9599 417.7 90.2299 415.22 120.41C406.09 94.8399 387.03 83.4199 381.96 80.7499C381.29 80.3999 381.09 79.5499 381.53 78.9299V78.9399Z" fill="white"/>
<path d="M189.57 78.9399L185.85 73.6199C185.45 73.0499 184.7 72.8599 184.08 73.1699C178.49 75.9599 153.4 90.2299 155.88 120.41C165.01 94.8399 184.07 83.4199 189.14 80.7499C189.81 80.3999 190.01 79.5499 189.57 78.9299V78.9399Z" fill="white"/>
</g>
<path d="M528.721 261.049C528.721 254.525 528.104 250.293 526.869 248.353C525.635 246.414 523.078 245.444 519.199 245.444V243.857H596.43C605.776 243.857 614.239 244.827 621.821 246.767C629.403 248.706 635.839 251.527 641.129 255.23C646.419 258.933 650.474 263.429 653.296 268.719C656.293 273.833 657.792 279.651 657.792 286.176C657.792 291.994 656.646 297.372 654.353 302.309C652.061 307.07 648.799 311.214 644.567 314.74C640.512 318.267 635.663 321 630.02 322.94C624.378 324.879 618.207 325.849 611.506 325.849C603.395 325.849 595.372 324.527 587.438 321.882C579.679 319.237 573.42 315.798 568.659 311.567V411.808C568.659 418.332 569.364 422.564 570.775 424.504C572.185 426.443 575.007 427.413 579.238 427.413V429H519.199V427.413C523.078 427.413 525.635 426.443 526.869 424.504C528.104 422.564 528.721 418.332 528.721 411.808V261.049ZM568.659 304.425C571.304 307.07 575.007 309.362 579.767 311.302C584.704 313.065 589.553 313.947 594.314 313.947C601.72 313.947 607.451 311.39 611.506 306.277C615.562 301.163 617.589 293.581 617.589 283.531C617.589 271.54 614.504 262.9 608.332 257.611C602.337 252.321 592.727 249.676 579.503 249.676H568.659V304.425ZM730.051 289.349C740.102 289.349 749.447 291.201 758.087 294.904C766.727 298.43 774.221 303.367 780.569 309.715C786.917 316.063 791.854 323.645 795.38 332.461C798.907 341.101 800.67 350.535 800.67 360.762C800.67 370.989 798.907 380.422 795.38 389.062C792.03 397.526 787.269 404.843 781.098 411.015C774.926 417.186 767.521 422.035 758.881 425.562C750.417 428.912 741.072 430.587 730.845 430.587C720.618 430.587 711.184 428.824 702.544 425.297C693.904 421.771 686.499 416.922 680.327 410.75C674.156 404.402 669.307 396.909 665.78 388.269C662.254 379.629 660.49 370.195 660.49 359.968C660.49 349.741 662.166 340.308 665.516 331.668C669.042 323.028 673.891 315.622 680.063 309.451C686.41 303.103 693.816 298.166 702.28 294.639C710.744 291.113 720.001 289.349 730.051 289.349ZM730.58 294.375C721.059 294.375 713.388 300.282 707.57 312.096C701.927 323.733 699.106 339.602 699.106 359.704C699.106 369.754 699.811 378.923 701.222 387.211C702.809 395.322 704.925 402.198 707.57 407.841C710.391 413.483 713.741 417.891 717.62 421.065C721.499 424.063 725.819 425.562 730.58 425.562C735.341 425.562 739.661 424.063 743.54 421.065C747.419 417.891 750.681 413.483 753.326 407.841C756.148 402.198 758.264 395.41 759.674 387.475C761.261 379.364 762.055 370.283 762.055 360.233C762.055 339.955 759.233 323.909 753.591 312.096C747.948 300.282 740.278 294.375 730.58 294.375ZM821.032 254.437C821.032 249.147 820.414 245.444 819.18 243.328C818.122 241.212 816.006 240.154 812.832 240.154V238.567H858.325V413.131C858.325 418.42 858.677 422.123 859.383 424.239C860.088 426.355 862.468 427.413 866.524 427.413V429H812.832V427.413C816.888 427.413 819.268 426.355 819.974 424.239C820.679 422.123 821.032 418.42 821.032 413.131V254.437ZM883.709 258.404C883.709 252.233 885.737 247.56 889.793 244.386C894.025 241.036 899.491 239.361 906.191 239.361C912.892 239.361 918.269 241.036 922.325 244.386C926.381 247.56 928.408 252.233 928.408 258.404C928.408 264.576 926.381 269.336 922.325 272.687C918.269 276.037 912.892 277.712 906.191 277.712C899.491 277.712 894.025 276.037 889.793 272.687C885.737 269.336 883.709 264.576 883.709 258.404ZM887.412 306.806C887.412 301.516 886.795 297.813 885.561 295.697C884.503 293.581 882.387 292.523 879.213 292.523V290.936H924.705V413.131C924.705 418.42 925.234 422.123 926.292 424.239C927.527 426.355 929.731 427.413 932.905 427.413V429H879.213V427.413C882.387 427.413 884.503 426.355 885.561 424.239C886.795 422.123 887.412 418.42 887.412 413.131V306.806ZM993.996 423.181H1071.23C1077.75 423.181 1082.78 421.771 1086.3 418.949C1090.01 415.952 1092.03 412.954 1092.39 409.957H1093.97L1090.8 429H947.445V427.413L1042.13 249.676H975.481C968.957 249.676 963.844 251.087 960.141 253.908C956.614 256.729 954.675 259.727 954.322 262.9H952.735L955.909 243.857H1088.68V245.444L993.996 423.181ZM1234.93 383.508C1233.17 390.561 1230.34 396.997 1226.47 402.816C1222.59 408.634 1217.83 413.571 1212.18 417.627C1206.72 421.682 1200.46 424.856 1193.4 427.149C1186.53 429.441 1179.12 430.587 1171.19 430.587C1161.14 430.587 1151.88 428.824 1143.42 425.297C1135.13 421.771 1127.9 416.922 1121.73 410.75C1115.73 404.402 1111.06 396.909 1107.71 388.269C1104.36 379.629 1102.68 370.195 1102.68 359.968C1102.68 349.741 1104.36 340.308 1107.71 331.668C1111.06 323.028 1115.64 315.622 1121.46 309.451C1127.46 303.103 1134.51 298.166 1142.62 294.639C1150.73 291.113 1159.64 289.349 1169.34 289.349C1177.27 289.349 1184.76 290.584 1191.82 293.052C1198.87 295.521 1205.22 299.047 1210.86 303.632C1216.68 308.04 1221.53 313.506 1225.41 320.03C1229.46 326.378 1232.37 333.431 1234.14 341.189H1142.36C1142.01 343.658 1141.74 346.303 1141.56 349.124C1141.39 351.769 1141.3 354.502 1141.3 357.323C1141.3 376.719 1145.36 391.883 1153.47 402.816C1161.58 413.571 1172.77 418.949 1187.06 418.949C1198.34 418.949 1208.13 415.776 1216.41 409.428C1224.88 403.08 1230.52 394.352 1233.34 383.243L1234.93 383.508ZM1171.45 294.375C1165.1 294.375 1159.37 298.254 1154.26 306.012C1149.15 313.594 1145.44 323.38 1143.15 335.371H1197.37C1195.08 322.146 1191.64 312.007 1187.06 304.954C1182.65 297.901 1177.45 294.375 1171.45 294.375ZM1254.44 306.806C1254.44 301.163 1253.83 297.372 1252.59 295.433C1251.36 293.493 1249.24 292.523 1246.24 292.523V290.936H1289.62V336.429C1292.27 329.199 1295.62 322.675 1299.67 316.856C1303.9 311.038 1308.49 306.1 1313.42 302.045C1318.36 297.989 1323.48 294.904 1328.77 292.788C1334.05 290.496 1339.26 289.349 1344.37 289.349C1349.31 289.349 1353.89 290.407 1358.12 292.523C1362.53 294.639 1366.32 297.989 1369.5 302.574C1372.85 307.158 1375.49 312.977 1377.43 320.03C1379.37 326.907 1380.34 335.282 1380.34 345.157V413.395C1380.34 418.861 1380.96 422.564 1382.19 424.504C1383.43 426.443 1385.54 427.413 1388.54 427.413V429H1333.53V427.413C1336.52 427.413 1338.64 426.531 1339.87 424.768C1341.11 422.829 1341.73 419.214 1341.73 413.924V346.479C1341.73 332.02 1340.05 321.97 1336.7 316.327C1333.53 310.509 1329.56 307.599 1324.8 307.599C1321.8 307.599 1318.63 308.657 1315.28 310.773C1311.93 312.889 1308.75 315.71 1305.75 319.237C1302.76 322.763 1300.02 326.907 1297.56 331.668C1295.09 336.429 1293.15 341.454 1291.74 346.744V413.131C1291.74 418.773 1292.35 422.564 1293.59 424.504C1294.82 426.443 1296.94 427.413 1299.94 427.413V429H1246.24V427.413C1249.24 427.413 1251.36 426.443 1252.59 424.504C1253.83 422.564 1254.44 418.773 1254.44 413.131V306.806Z" fill="white"/>
<defs>
<clipPath id="clip0_52_216">
<rect width="572.68" height="678.64" fill="white"/>
</clipPath>
</defs>
</svg>
